<svg width="64" height="32" viewBox="0 0 64 32" fill="none" xmlns="http://www.w3.org/2000/svg">
<path fill-rule="evenodd" clip-rule="evenodd" d="M17.5 27C23.299 27 28 22.299 28 16.5C28 10.701 23.299 6 17.5 6C11.701 6 7 10.701 7 16.5C7 22.299 11.701 27 17.5 27ZM17.5 29C24.4036 29 30 23.4036 30 16.5C30 9.59644 24.4036 4 17.5 4C10.5964 4 5 9.59644 5 16.5C5 23.4036 10.5964 29 17.5 29ZM25 16.5C25 20.6421 21.6421 24 17.5 24C13.3579 24 10 20.6421 10 16.5C10 12.3579 13.3579 9 17.5 9C21.6421 9 25 12.3579 25 16.5ZM18.5 17C19.8807 17 21 15.8807 21 14.5C21 13.1193 19.8807 12 18.5 12C17.1193 12 16 13.1193 16 14.5C16 15.8807 17.1193 17 18.5 17Z" fill="#FCF7FF"/>
<path d="M29 16C29.5 15.6667 30.8 15 32 15C33.2 15 34.5 15.6667 35 16" stroke="#FCF7FF" stroke-width="2"/>
<path fill-rule="evenodd" clip-rule="evenodd" d="M46.5 27C52.299 27 57 22.299 57 16.5C57 10.701 52.299 6 46.5 6C40.701 6 36 10.701 36 16.5C36 22.299 40.701 27 46.5 27ZM46.5 29C53.4036 29 59 23.4036 59 16.5C59 9.59644 53.4036 4 46.5 4C39.5964 4 34 9.59644 34 16.5C34 23.4036 39.5964 29 46.5 29ZM54 16.5C54 20.6421 50.6421 24 46.5 24C42.3579 24 39 20.6421 39 16.5C39 12.3579 42.3579 9 46.5 9C50.6421 9 54 12.3579 54 16.5ZM47.5 17C48.8807 17 50 15.8807 50 14.5C50 13.1193 48.8807 12 47.5 12C46.1193 12 45 13.1193 45 14.5C45 15.8807 46.1193 17 47.5 17Z" fill="#FCF7FF"/>
</svg>
