<svg width="28" height="28" viewBox="0 0 28 28" fill="none" xmlns="http://www.w3.org/2000/svg">
<g clip-path="url(#clip0_22_126)">
<path fill-rule="evenodd" clip-rule="evenodd" d="M10.6666 24.2222C10.7893 24.2222 10.8888 24.1227 10.8888 24C10.8888 23.8773 10.7893 23.7778 10.6666 23.7778C10.5439 23.7778 10.4444 23.8773 10.4444 24C10.4444 24.1227 10.5439 24.2222 10.6666 24.2222ZM8.22217 24C8.22217 22.65 9.31658 21.5555 10.6666 21.5555C12.0166 21.5555 13.1111 22.65 13.1111 24C13.1111 25.35 12.0166 26.4444 10.6666 26.4444C9.31658 26.4444 8.22217 25.35 8.22217 24Z" fill="black"/>
<path fill-rule="evenodd" clip-rule="evenodd" d="M22.8888 24.2222C23.0115 24.2222 23.111 24.1227 23.111 24C23.111 23.8773 23.0115 23.7778 22.8888 23.7778C22.7661 23.7778 22.6666 23.8773 22.6666 24C22.6666 24.1227 22.7661 24.2222 22.8888 24.2222ZM20.4443 24C20.4443 22.65 21.5388 21.5555 22.8888 21.5555C24.2388 21.5555 25.3332 22.65 25.3332 24C25.3332 25.35 24.2388 26.4444 22.8888 26.4444C21.5388 26.4444 20.4443 25.35 20.4443 24Z" fill="black"/>
<path fill-rule="evenodd" clip-rule="evenodd" d="M0.444336 1.77779C0.444336 1.04141 1.04129 0.444458 1.77767 0.444458H6.22211C6.85762 0.444458 7.4048 0.892972 7.52952 1.51612L8.42697 6.00001H26.2221C26.6195 6.00001 26.9961 6.17725 27.2494 6.48342C27.5027 6.78959 27.6063 7.19278 27.5318 7.58312L25.7522 16.9153C25.5896 17.7338 25.1443 18.469 24.4943 18.9923C23.848 19.5126 23.0402 19.7903 22.2109 19.7778H11.4334C10.6041 19.7903 9.79627 19.5126 9.14996 18.9923C8.50017 18.4692 8.05498 17.7343 7.89227 16.9162C7.89222 16.9159 7.89233 16.9164 7.89227 16.9162L6.03735 7.64849C6.02903 7.61415 6.02204 7.5793 6.01644 7.54398L5.1292 3.11112H1.77767C1.04129 3.11112 0.444336 2.51417 0.444336 1.77779ZM8.9607 8.66668L10.5077 16.3958C10.5483 16.6004 10.6596 16.7842 10.8221 16.9151C10.9846 17.0459 11.188 17.1154 11.3966 17.1114L11.4221 17.1111H22.2221L22.2477 17.1114C22.4562 17.1154 22.6596 17.0459 22.8221 16.9151C22.9836 16.7851 23.0945 16.6027 23.1358 16.3996C23.136 16.3984 23.1363 16.3971 23.1366 16.3958L24.6105 8.66668H8.9607Z" fill="black"/>
</g>
<defs>
<clipPath id="clip0_22_126">
<rect width="26.6667" height="26.6667" fill="white" transform="translate(0.666504 0.666626)"/>
</clipPath>
</defs>
</svg>
