<svg width="32" height="22" viewBox="0 0 32 22" fill="none" xmlns="http://www.w3.org/2000/svg">
<path fill-rule="evenodd" clip-rule="evenodd" d="M16.0032 7.79067L10.8334 1.88232L5.6636 7.79067C5.22148 8.29595 5.27268 9.06398 5.77796 9.5061C6.28324 9.94822 7.05127 9.89702 7.49339 9.39174L9.61781 6.96383V18.9245C9.61781 19.5959 10.1621 20.1401 10.8335 20.1401C11.5049 20.1401 12.0492 19.5959 12.0492 18.9245V6.96405L14.1734 9.39174C14.6155 9.89702 15.3836 9.94822 15.8888 9.5061C16.3941 9.06398 16.4453 8.29595 16.0032 7.79067Z" fill="#140020"/>
<path d="M15.9969 14.2319L21.1666 20.1402L26.3364 14.2319C26.7786 13.7266 26.7274 12.9586 26.2221 12.5164C25.7168 12.0743 24.9488 12.1255 24.5067 12.6308L22.3824 15.0586L22.3824 3.09801C22.3824 2.42661 21.8381 1.88232 21.1667 1.88232C20.4953 1.88232 19.951 2.42661 19.951 3.09801V15.0586L17.8266 12.6308C17.3845 12.1255 16.6165 12.0743 16.1112 12.5164C15.6059 12.9586 15.5547 13.7266 15.9969 14.2319Z" fill="#140020"/>
</svg>
