<svg width="30" height="26" viewBox="0 0 30 26" fill="none" xmlns="http://www.w3.org/2000/svg">
<path fill-rule="evenodd" clip-rule="evenodd" d="M18.0772 1.11652C19.0632 0.707966 20.1201 0.497681 21.1874 0.497681C22.2547 0.497681 23.3116 0.707966 24.2976 1.11652C25.2834 1.52501 26.1791 2.12369 26.9336 2.87837C27.6883 3.63281 28.2874 4.52894 28.6958 5.51478C29.1044 6.5008 29.3147 7.55765 29.3147 8.62496C29.3147 9.69227 29.1044 10.7491 28.6958 11.7351C28.2873 12.7211 27.6886 13.6169 26.9338 14.3713C26.9337 14.3714 26.9339 14.3713 26.9338 14.3713L15.8838 25.4213C15.3956 25.9095 14.6042 25.9095 14.116 25.4213L3.06602 14.3713C1.54199 12.8473 0.685791 10.7803 0.685791 8.62496C0.685791 6.46965 1.54199 4.40261 3.06602 2.87858C4.59006 1.35454 6.65709 0.498349 8.8124 0.498349C10.9677 0.498349 13.0348 1.35454 14.5588 2.87858L14.9999 3.3197L15.4408 2.87879C15.4409 2.87872 15.4407 2.87886 15.4408 2.87879C16.1953 2.124 17.0913 1.52504 18.0772 1.11652ZM21.1874 2.99768C20.4485 2.99768 19.7168 3.14326 19.0342 3.42611C18.3516 3.70896 17.7314 4.12353 17.209 4.64614L15.8838 5.97135C15.3956 6.4595 14.6042 6.4595 14.116 5.97135L12.791 4.64635C11.7358 3.59115 10.3047 2.99835 8.8124 2.99835C7.32013 2.99835 5.88898 3.59115 4.83379 4.64635C3.77859 5.70154 3.18579 7.13269 3.18579 8.62496C3.18579 10.1172 3.77859 11.5484 4.83379 12.6036L14.9999 22.7697L25.166 12.6036C25.6886 12.0812 26.1034 11.4608 26.3863 10.7782C26.6691 10.0955 26.8147 9.36387 26.8147 8.62496C26.8147 7.88606 26.6691 7.15439 26.3863 6.47176C26.1034 5.78913 25.6888 5.16892 25.1662 4.64655C24.6439 4.12394 24.0232 3.70896 23.3406 3.42611C22.658 3.14326 21.9263 2.99768 21.1874 2.99768Z" fill="black"/>
</svg>
