<svg width="32" height="32" viewBox="0 0 32 32" fill="none" xmlns="http://www.w3.org/2000/svg">
<path fill-rule="evenodd" clip-rule="evenodd" d="M20.0096 10.5652C20.5032 10.5652 20.9467 10.3506 21.2519 10.0096C21.5158 9.71477 21.6763 9.32538 21.6763 8.89852C21.6763 8.47166 21.5158 8.08227 21.2519 7.78741C20.9467 7.44644 20.5032 7.23185 20.0096 7.23185C19.516 7.23185 19.0725 7.44644 18.7673 7.78741C18.5034 8.08227 18.343 8.47166 18.343 8.89852C18.343 9.32538 18.5034 9.71477 18.7673 10.0096C19.0725 10.3506 19.516 10.5652 20.0096 10.5652ZM20.0096 5.56519C21.461 5.56519 22.6957 6.49275 23.1533 7.78741H24.4541C25.0677 7.78741 25.5652 8.28487 25.5652 8.89852C25.5652 9.51217 25.0677 10.0096 24.4541 10.0096H23.1533C22.6957 11.3043 21.461 12.2319 20.0096 12.2319C18.5583 12.2319 17.3236 11.3043 16.866 10.0096H6.6763C6.06265 10.0096 5.56519 9.51217 5.56519 8.89852C5.56519 8.28487 6.06265 7.78741 6.6763 7.78741H16.866C17.3236 6.49275 18.5583 5.56519 20.0096 5.56519ZM20.0096 23.8985C20.5032 23.8985 20.9467 23.6839 21.2519 23.343C21.5158 23.0481 21.6763 22.6587 21.6763 22.2319C21.6763 21.805 21.5158 21.4156 21.2519 21.1207C20.9467 20.7798 20.5032 20.5652 20.0096 20.5652C19.516 20.5652 19.0725 20.7798 18.7673 21.1207C18.5034 21.4156 18.343 21.805 18.343 22.2319C18.343 22.6587 18.5034 23.0481 18.7673 23.343C19.0725 23.6839 19.516 23.8985 20.0096 23.8985ZM20.0096 18.8985C21.461 18.8985 22.6957 19.8261 23.1533 21.1207H24.4541C25.0677 21.1207 25.5652 21.6182 25.5652 22.2319C25.5652 22.8455 25.0677 23.343 24.4541 23.343H23.1533C22.6957 24.6376 21.461 25.5652 20.0096 25.5652C18.5583 25.5652 17.3236 24.6376 16.866 23.343H6.6763C6.06265 23.343 5.56519 22.8455 5.56519 22.2319C5.56519 21.6182 6.06265 21.1207 6.6763 21.1207H16.866C17.3236 19.8261 18.5583 18.8985 20.0096 18.8985ZM7.97708 16.6763C8.43468 17.971 9.66939 18.8985 11.1207 18.8985C12.5721 18.8985 13.8068 17.971 14.2644 16.6763H24.4541C25.0677 16.6763 25.5652 16.1788 25.5652 15.5652C25.5652 14.9515 25.0677 14.4541 24.4541 14.4541H14.2644C13.8068 13.1594 12.5721 12.2319 11.1207 12.2319C9.66939 12.2319 8.43468 13.1594 7.97708 14.4541H6.6763C6.06265 14.4541 5.56519 14.9515 5.56519 15.5652C5.56519 16.1788 6.06265 16.6763 6.6763 16.6763H7.97708ZM9.87846 14.4541C10.1836 14.1131 10.6271 13.8985 11.1207 13.8985C11.6144 13.8985 12.0578 14.1131 12.363 14.4541C12.6269 14.7489 12.7874 15.1383 12.7874 15.5652C12.7874 15.992 12.6269 16.3814 12.363 16.6763C12.0578 17.0173 11.6144 17.2319 11.1207 17.2319C10.6271 17.2319 10.1836 17.0173 9.87846 16.6763C9.61455 16.3814 9.45407 15.992 9.45407 15.5652C9.45407 15.1383 9.61455 14.7489 9.87846 14.4541Z" fill="#140020"/>
<circle cx="23.6522" cy="8.34786" r="4.17391" fill="#A2FD07"/>
</svg>
