<svg width="32" height="32" viewBox="0 0 32 32" fill="none" xmlns="http://www.w3.org/2000/svg">
<path fill-rule="evenodd" clip-rule="evenodd" d="M11.9048 6.66663L16.8722 11.967C17.2332 12.3522 17.2332 12.9767 16.8722 13.3619C16.5112 13.7471 15.9259 13.7471 15.5649 13.3619L12.7779 10.3879V24.182C12.7779 24.6337 12.387 24.9999 11.9048 24.9999C11.4227 24.9999 11.0318 24.6337 11.0318 24.182V10.3879L8.24475 13.3619C7.88376 13.7471 7.29848 13.7471 6.93749 13.3619C6.5765 12.9767 6.5765 12.3522 6.93749 11.967L11.9048 6.66663ZM21.217 25L16.2497 19.6996C15.8887 19.3144 15.8887 18.6899 16.2497 18.3047C16.6106 17.9195 17.1959 17.9195 17.5569 18.3047L20.344 21.2786V7.48456C20.344 7.03283 20.7349 6.66663 21.217 6.66663C21.6992 6.66663 22.09 7.03283 22.09 7.48456V21.2786L24.8771 18.3047C25.2381 17.9195 25.8234 17.9195 26.1844 18.3047C26.5454 18.6899 26.5454 19.3144 26.1844 19.6996L21.217 25Z" fill="black"/>
</svg>
